{"title":"IMAX Dinosaurs: Giants of Patagonia 3D (Stereoscopic S.B.S MKV)","uid":6671811,"size":3427330337,"categoryP":"video","categoryS":"3d","magnet":"?xt=urn:btih:cdcce7a52c97da75a471d829e3f74be805b1f83c&amp;dn=IMAX+Dinosaurs%3A+Giants+of+Patagonia+3D+%28Stereoscopic+S.B.S+MKV%29&amp;tr=udp%3A%2F%2Ftracker.openbittorrent.com%3A80&amp;tr=udp%3A%2F%2Fopen.demonii.com%3A1337&amp;tr=udp%3A%2F%2Ftracker.coppersurfer.tk%3A6969&amp;tr=udp%3A%2F%2Fexodus.desync.com%3A6969","seeders":0,"leechers":0,"uploader":"L3G3ND","files":2,"time":1315902091,"description":"This is a stereoscopic 3D rip of IMAX Dinosaurs: Giants of Patagonia, for new 3D TVs or computers with Nvidia 3D Vision. Tested with Stereoscopic Player. Enjoy!\n\nTitle: Dinosaurs: Giants of Patagonia (2007)\nRated: Not Rated\nRuntime: 40 Minutes\nGenre: Documentary\n\nDescription:\nIf it weren't for a series of cataclysmic events, a comet impact being first on the list, our planet could well still be the domain of dinosaurs. Following Pr Rodolfo Coria, a world-reknown Argentinian paleontologist, we visit sites of major discoveries he has contributed to in Patagonia and travel back in time to see these amazing beasts come to life in 3D. Patagonia has given us the largest living animal to ever walk the Earth: the titanesque plant-eating Argentinosaur, and its nemesis, the Giganotosaur, a bipedal carnivore that could easily challenge the famous T-Rex.\n-From IMDB Page: http://www.imdb.com/title/tt0899143/\n\nGeneral\nUnique ID : 199392215813687164620311618187888891391 (0x96018B3DC5DF3D84B2EFF48EDE5B15FF)\nComplete name : [filepath]\\IMAX Dinosaurs - Giants of Patagonia 3D.mkv\nFormat : Matroska\nFile size : 3.19 GiB\nDuration : 40mn 34s\nOverall bit rate : 11.3 Mbps\nEncoded date : UTC 2010-12-11 15:40:23\nWriting application : mkvmerge v4.3.0 ('Escape from the Island') gemaakt op Sep 5 2010 10:30:51\nWriting library : libebml v1.0.0 + libmatroska v1.0.0\n\nVideo\nID : 1\nFormat : AVC\nFormat/Info : Advanced Video Codec\nFormat profile : &lt;a class=&quot;__cf_email__&quot; href=&quot;/cdn-cgi/l/email-protection&quot; data-cfemail=&quot;c58daca2ad8589f1ebf5&quot;&gt;[email&amp;#160;protected]&lt;/a&gt;&lt;script data-cfhash='f9e31' type=&quot;text/javascript&quot;&gt;\n/* &lt;![CDATA[ */!function(){try{var t=&quot;currentScript&quot;in document?document.currentScript:function(){for(var t=document.getElementsByTagName(&quot;script&quot;),e=t.length;e--;)if(t[e].getAttribute(&quot;data-cfhash&quot;))return t[e]}();if(t&amp;&amp;t.previousSibling){var e,r,n,i,c=t.previousSibling,a=c.getAttribute(&quot;data-cfemail&quot;);if(a){for(e=&quot;&quot;,r=parseInt(a.substr(0,2),16),n=2;a.length-n;n+=2)i=parseInt(a.substr(n,2),16)^r,e+=String.fromCharCode(i);e=document.createTextNode(e),c.parentNode.replaceChild(e,c)}t.parentNode.removeChild(t);}}catch(u){}}()/* ]]&gt; */&lt;/script&gt;\nFormat settings, CABAC : Yes\nFormat settings, ReFrames : 4 frames\nFormat settings, GOP : M=4, N=47\nCodec ID : V_MPEG4/ISO/AVC\nDuration : 40mn 34s\nBit rate : 10 000 Kbps\nWidth : 1 920 pixels\nHeight : 1 080 pixels\nDisplay aspect ratio : 16:9\nFrame rate mode : Variable\nFrame rate : 23.976 fps\nColor space : YUV\nChroma subsampling : 4:2:0\nBit depth : 8 bits\nScan type : Progressive\nBits/(Pixel*Frame) : 0.201\nStream size : 2.70 GiB (85%)\nWriting library : x264 core 107 r1745 4785e8e\n\nAudio\nID : 2\nFormat : DTS\nFormat/Info : Digital Theater Systems\nCodec ID : A_DTS\nDuration : 40mn 34s\nBit rate mode : Constant\nBit rate : 1 510 Kbps\nChannel(s) : 6 channels\nChannel positions : Front: L C R, Side: L R, LFE\nSampling rate : 48.0 KHz\nBit depth : 24 bits\nCompression mode : Lossy\nStream size : 438 MiB (13%)\n\n","torrent":{"xt":"urn:btih:cdcce7a52c97da75a471d829e3f74be805b1f83c","amp;dn":"IMAX+Dinosaurs%3A+Giants+of+Patagonia+3D+%28Stereoscopic+S.B.S+MKV%29","amp;tr":["udp%3A%2F%2Ftracker.openbittorrent.com%3A80","udp%3A%2F%2Fopen.demonii.com%3A1337","udp%3A%2F%2Ftracker.coppersurfer.tk%3A6969","udp%3A%2F%2Fexodus.desync.com%3A6969"],"infoHash":"cdcce7a52c97da75a471d829e3f74be805b1f83c","infoHashBuffer":{"type":"Buffer","data":[205,204,231,165,44,151,218,117,164,113,216,41,227,247,75,232,5,177,248,60]},"announce":[],"urlList":[]}}